<svg data-v-0dd9719b="" version="1.0" xmlns="http://www.w3.org/2000/svg" xmlns:xlink="http://www.w3.org/1999/xlink" width="100%" height="100%" viewBox="0 0 340.000000 250.000000" preserveAspectRatio="xMidYMid meet" color-interpolation-filters="sRGB" style="margin: auto;"> <rect data-v-0dd9719b="" x="0" y="0" width="100%" height="100%" fill="#fff" fill-opacity="1" class="background"></rect> <rect data-v-0dd9719b="" x="0" y="0" width="100%" height="100%" fill="url(#watermark)" fill-opacity="1" class="watermarklayer"></rect> <g data-v-0dd9719b="" fill="#333" class="icon-text-wrapper icon-svg-group iconsvg" transform="translate(98.20999908447266,96.76789283752441)"><g class="iconsvg-imagesvg" transform="translate(0,0)"><g><rect fill="#333" fill-opacity="0" stroke-width="2" x="0" y="0" width="60" height="56.464211100863906" class="image-rect"></rect> <svg x="0" y="0" width="60" height="56.464211100863906" filtersec="colorsb2994703592" class="image-svg-svg primary" style="overflow: visible;"><svg xmlns="http://www.w3.org/2000/svg" viewBox="0.28515467047691345 0.27830439805984497 105.97604370117188 99.73069763183594"><path d="M91.2 16a53.15 53.15 0 0 1-1 75.14l-4.65-4.78A46.43 46.43 0 1 0 6.68 52.57a46.06 46.06 0 0 0 13.17 33l-4.78 4.67A53.17 53.17 0 0 1 91.2 16z" fill="#2b3990"></path><path d="M25.37 24.66A39.76 39.76 0 1 1 80.89 81.6l-4.65-4.78a33.09 33.09 0 1 0-46.83-.56l-4.78 4.66a39.79 39.79 0 0 1 .74-56.26z" fill="#2b3990"></path><path d="M34.68 34.21a26.43 26.43 0 1 1 36.9 37.84l-4.66-4.78A19.74 19.74 0 1 0 39 66.94l-4.81 4.66a26.44 26.44 0 0 1 .49-37.39z" fill="#2b3990"></path><path d="M44 43.76A13.09 13.09 0 1 1 62.27 62.5l-4.66-4.77a6.42 6.42 0 1 0-9.08-.11l-4.78 4.66A13.1 13.1 0 0 1 44 43.76z" fill="#2b3990"></path><path fill="#00aeef" d="M56.678 94.65l4.868-4.748 4.741 4.862-4.868 4.747zM38.09 94.553l4.868-4.747 4.74 4.86-4.868 4.748zM57.034 76.076l4.868-4.747 4.748 4.868-4.869 4.748zM66.147 85.413l4.868-4.748 4.74 4.862-4.868 4.747zM75.613 95.14l4.868-4.747 4.748 4.868-4.868 4.748zM48.142 66.954l4.868-4.748 4.74 4.861-4.868 4.748zM38.673 76.19l4.868-4.747 4.741 4.861-4.868 4.748zM52.44 80.57v-.01l-4.88 4.75.01.01 4.74 4.87 4.88-4.75-4.75-4.87zM29.207 85.43l4.869-4.747 4.74 4.861-4.868 4.748zM19.246 95.136l4.868-4.748 4.74 4.862-4.868 4.747z"></path></svg></svg> <!----></g></g> <g transform="translate(67,4.2071075439453125)"><g data-gra="path-name" fill-rule="" class="tp-name iconsvg-namesvg"><g transform="scale(1)"><g><path d="M25.87-45.58L25.87-45.58Q25.61-42.12 25.45-39.51 25.3-36.91 25.22-34.9 25.14-32.88 25.12-31.33 25.1-29.77 25.14-28.37 25.17-26.98 25.23-25.6 25.3-24.22 25.34-22.6 25.39-20.98 25.44-18.96 25.49-16.95 25.49-14.25L25.49-14.25Q25.49-11.08 24.85-8.13 24.22-5.17 22.69-2.9 21.17-0.63 18.6 0.73 16.03 2.09 12.16 2.09L12.16 2.09Q9.87 2.09 8.11 1.56 6.35 1.02 5.03 0.1 3.71-0.83 2.81-2.06 1.9-3.3 1.35-4.68 0.79-6.06 0.56-7.51 0.32-8.95 0.32-10.28L0.32-10.28Q0.32-12.06 0.9-13.23 1.49-14.41 2.33-15.11 3.17-15.81 4.08-16.09 4.98-16.38 5.65-16.38L5.65-16.38Q6.35-16.38 7.28-16.11 8.22-15.84 9.08-15.19 9.93-14.54 10.52-13.49 11.11-12.44 11.11-10.92L11.11-10.92Q11.04-9.74 10.6-8.73L10.6-8.73Q10.22-7.87 9.41-7.03 8.6-6.19 7.08-5.84L7.08-5.84Q7.65-4.92 8.36-4.36 9.08-3.81 9.82-3.52 10.57-3.24 11.24-3.14 11.9-3.05 12.35-3.05L12.35-3.05Q14.03-3.05 15.04-3.73 16.06-4.41 16.6-5.63 17.14-6.86 17.31-8.49 17.49-10.12 17.49-12.03L17.49-12.03Q17.49-16.35 17.47-20.58 17.46-24.82 17.36-28.98 17.27-33.13 17.04-37.26 16.82-41.39 16.38-45.45L16.38-45.45Q16.73-45.39 17.27-45.32L17.27-45.32Q18.12-45.23 19.9-45.23L19.9-45.23Q21.01-45.23 22.5-45.29 23.99-45.35 25.87-45.58ZM44.97 0.51L44.97 0.51 44.08 0.51Q42.12 0.51 40.36 0.71 38.59 0.92 36.59 1.3L36.59 1.3Q37.01-5.68 37.23-11.82 37.45-17.96 37.45-23.74L37.45-23.74Q37.45-31.14 37.07-38.34L37.07-38.34 29.07-37.77Q29.04-38.85 29.01-39.75 28.98-40.66 28.91-41.5 28.85-42.34 28.75-43.21 28.66-44.08 28.53-45.16L28.53-45.16 32.37-45.16Q34.91-45.16 37.34-45.2 39.77-45.23 42.2-45.29 44.62-45.35 47.12-45.45 49.61-45.54 52.27-45.7L52.27-45.7Q52.11-44.08 52.07-42.96 52.02-41.83 52.02-40.63L52.02-40.63 52.02-38.94 44.21-38.75Q44.12-35.71 44.1-32.77 44.08-29.83 44.08-26.85L44.08-26.85Q44.08-19.93 44.31-13.14 44.53-6.35 44.97 0.51ZM76.9 2L76.9 2Q74.62 1.94 72.59 1.94 70.55 1.94 68.78 1.94L68.78 1.94Q65.16 1.94 62.57 2.02 59.99 2.09 58.27 2.16L58.27 2.16Q56.3 2.25 54.94 2.35L54.94 2.35Q55.16 0.22 55.34-1.97 55.51-4.16 55.64-6.28 55.76-8.41 55.86-10.41 55.95-12.41 56.02-14.19L56.02-14.19Q56.15-18.31 56.18-22.15L56.18-22.15Q56.15-25.96 56.02-29.96L56.02-29.96Q55.95-31.67 55.86-33.56 55.76-35.45 55.64-37.42 55.51-39.39 55.34-41.37 55.16-43.35 54.94-45.23L54.94-45.23 64.3-45.7Q63.7-38.53 63.48-31.88 63.25-25.23 63.25-19.61L63.25-19.61Q63.25-14.22 63.37-10.38 63.48-6.54 63.57-4.54L63.57-4.54 63.7-4.54Q66.17-4.54 68.54-4.92 70.9-5.3 72.78-5.78L72.78-5.78Q74.97-6.32 76.9-7.01L76.9-7.01Q76.87-6.67 76.87-6.13L76.87-6.13Q76.84-5.68 76.84-4.97 76.84-4.25 76.84-3.24L76.84-3.24Q76.84-2.22 76.84-0.94 76.84 0.35 76.9 2Z" transform="translate(-0.320000022649765, 45.70000076293945)"></path></g> <!----> <!----> <!----> <!----> <!----> <!----> <!----></g></g> <!----></g></g><defs v-gra="od"></defs></svg>